<?xml version="1.0" encoding="UTF-8" standalone="no"?>
<!-- Created with Inkscape (http://www.inkscape.org/) -->

<svg
   width="211.66664mm"
   height="211.66667mm"
   viewBox="0 0 211.66664 211.66667"
   version="1.1"
   id="svg1"
   xml:space="preserve"
   xmlns:inkscape="http://www.inkscape.org/namespaces/inkscape"
   xmlns:sodipodi="http://sodipodi.sourceforge.net/DTD/sodipodi-0.dtd"
   xmlns="http://www.w3.org/2000/svg"
   xmlns:svg="http://www.w3.org/2000/svg"><sodipodi:namedview
     id="namedview1"
     pagecolor="#ffffff"
     bordercolor="#000000"
     borderopacity="0.25"
     inkscape:showpageshadow="2"
     inkscape:pageopacity="0.0"
     inkscape:pagecheckerboard="0"
     inkscape:deskcolor="#d1d1d1"
     inkscape:document-units="mm"><inkscape:page
       x="1.3056679e-15"
       y="0"
       width="211.66666"
       height="211.66667"
       id="page2"
       margin="0"
       bleed="0" /></sodipodi:namedview><defs
     id="defs1" /><g
     inkscape:label="Layer 1"
     inkscape:groupmode="layer"
     id="layer1"
     transform="translate(1.0583349,-42.597919)"><path
       id="path18745"
       inkscape:connector-curvature="0"
       d="m 104.77499,42.597915 c -58.450154,0 -105.833325,47.383171 -105.833325,105.833325 0,58.45017 47.383171,105.83334 105.833325,105.83334 39.23083,0 73.44657,-21.3614 91.72575,-53.07172 l -37.25862,-21.43283 c -10.86079,18.8371 -31.16139,31.54856 -54.46713,31.54856 -34.726201,0 -62.877339,-28.15114 -62.877339,-62.87735 0,-34.7262 28.151138,-62.877339 62.877339,-62.877339 14.88493,0 28.52773,5.207176 39.28692,13.862226 l -27.78883,19.766313 94.33525,31.4579 V 52.054652 l -30.72166,21.85917 C 160.71214,54.583893 134.15309,42.597915 104.77499,42.597915 Z"
       style="fill:#cc8500;fill-opacity:1;stroke-width:0.176389" /></g></svg>
